<svg xmlns="http://www.w3.org/2000/svg" viewBox="0 0 42 42" class="design-iconfont">
  <path d="M21,3 C30.9411255,3 39,11.0588745 39,21 C39,30.9411255 30.9411255,39 21,39 C11.0588745,39 3,30.9411255 3,21 C3,11.0588745 11.0588745,3 21,3 Z M21,7 C13.2680135,7 7,13.2680135 7,21 C7,28.7319865 13.2680135,35 21,35 C28.7319865,35 35,28.7319865 35,21 C35,13.2680135 28.7319865,7 21,7 Z M22.5,27 C22.7761424,27 23,27.2238576 23,27.5 L23,30.5 C23,30.7761424 22.7761424,31 22.5,31 L19.5,31 C19.2238576,31 19,30.7761424 19,30.5 L19,27.5 C19,27.2238576 19.2238576,27 19.5,27 L22.5,27 Z M22.5,11 C22.7761424,11 23,11.2238576 23,11.5 L23,24.5 C23,24.7761424 22.7761424,25 22.5,25 L19.5,25 C19.2238576,25 19,24.7761424 19,24.5 L19,11.5 C19,11.2238576 19.2238576,11 19.5,11 L22.5,11 Z" fill="#0D5CCA" fill-rule="nonzero"/>
</svg>
