<svg xmlns="http://www.w3.org/2000/svg" viewBox="0 0 36 36" class="design-iconfont">
  <path d="M36,28.5111913 L36,22.8707581 L27.4409222,22.8707581 L27.4409222,25.7299639 L33.1469741,25.7299639 L33.1469741,28.5111913 L36,28.5111913 Z M33.1729107,31.3444043 L33.1729107,28.5371841 L30.2939481,28.5371841 L30.2939481,31.3963899 L33.1469741,31.3963899 L33.1469741,37.1407942 L30.3976945,37.1407942 L30.3976945,34.3595668 L27.4409222,34.3595668 L27.4409222,28.5631769 L24.5878963,28.5631769 L24.5878963,31.4223827 L21.7608069,31.4223827 L21.7608069,28.5891697 L18.8818444,28.5891697 L18.8818444,31.4483755 L21.7348703,31.4483755 L21.7348703,34.2815884 L18.8818444,34.2815884 L18.8818444,40 L21.7348703,40 L21.7348703,34.2815884 L24.5878963,34.2815884 L24.5878963,39.9740072 L27.4409222,39.9740072 L27.4409222,37.2187726 L30.3717579,37.2187726 L30.3717579,40 L36,40 L36,31.3444043 L33.1729107,31.3444043 Z M24.5878963,28.5371841 L24.5878963,22.8967509 L18.8818444,22.8707581 L18.8818444,25.7299639 L21.7348703,25.7299639 L21.7348703,28.5371841 L24.5878963,28.5371841 Z M0,4 L0,21.2072202 L17.1181556,21.2072202 L17.1181556,4 L0,4 Z M10.7636888,14.7870036 L6.35446686,14.7870036 L6.35446686,10.368231 L10.7636888,10.368231 L10.7636888,14.7870036 L10.7636888,14.7870036 Z M0,22.8707581 L0,40 L17.1181556,40 L17.1181556,22.8707581 L0,22.8707581 Z M10.7636888,33.631769 L6.35446686,33.631769 L6.35446686,29.2129964 L10.7636888,29.2129964 L10.7636888,33.631769 L10.7636888,33.631769 Z M18.8818444,4 L18.8818444,21.1552347 L36,21.1552347 L36,4 L18.8818444,4 Z M29.8011527,14.7870036 L25.3919308,14.7870036 L25.3919308,10.368231 L29.8011527,10.368231 L29.8011527,14.7870036 Z" transform="translate(0 -4)" fill="#3858E6" fill-rule="nonzero"/>
</svg>
